<svg xmlns="http://www.w3.org/2000/svg" version="1.1" xmlns:xlink="http://www.w3.org/1999/xlink" xmlns:svgjs="http://svgjs.dev/svgjs" width="1920" height="1080" preserveAspectRatio="none" viewBox="0 0 1920 1080"><g mask="url(&quot;#SvgjsMask1204&quot;)" fill="none"><rect width="1920" height="1080" x="0" y="0" fill="rgba(49, 115, 189, 1)"></rect><path d="M0,802.081C166.305,832.039,370.874,885.239,495.729,771.37C624.378,654.041,531.253,432.906,586.018,267.626C632.214,128.206,807.417,32.276,788.904,-113.427C770.417,-258.921,578.982,-309.094,497.265,-430.883C398.442,-578.167,417.627,-809.32,263.312,-896.76C110.563,-983.312,-98.103,-941.145,-251.016,-854.883C-394.769,-773.788,-423.894,-585.163,-522.999,-453.181C-612.94,-333.403,-759.071,-258.143,-805.935,-115.876C-856.762,38.42,-871.565,220.134,-791.326,361.387C-712.285,500.53,-532.668,533.442,-392.86,611.302C-263.046,683.596,-146.233,775.739,0,802.081" fill="#25568e"></path><path d="M1920 1787.9679999999998C2052.34 1788.4389999999999 2179.965 1726.598 2279.471 1639.347 2371.638 1558.531 2401.151 1434.4850000000001 2450.897 1322.453 2500.06 1211.734 2566.918 1107.766 2569.294 986.646 2571.916 852.986 2552.438 708.881 2464.9139999999998 607.829 2377.385 506.77200000000005 2228.129 502.18100000000004 2104.859 450.427 1962.842 390.802 1836.502 251.42899999999997 1685.243 280.49199999999996 1534.089 309.53499999999997 1452.681 471.75 1358.856 593.7660000000001 1270.1100000000001 709.1759999999999 1188.7 828.375 1155.028 970.014 1119.089 1121.188 1079.863 1294.078 1160.841 1426.696 1241.159 1558.233 1423.0059999999999 1570.565 1562.171 1636.792 1681.508 1693.583 1787.84 1787.4969999999998 1920 1787.9679999999998" fill="#5691d3"></path></g><defs><mask id="SvgjsMask1204"><rect width="1920" height="1080" fill="#ffffff"></rect></mask></defs></svg>